<svg id="color" enable-background="new 0 0 24 24" height="512" viewBox="0 0 24 24" width="512" xmlns="http://www.w3.org/2000/svg"><path d="m6.97 8.788c-.192 0-.384-.073-.53-.22-.293-.293-.293-.768 0-1.061l4.842-4.842c1.055-1.055 2.773-1.055 3.828 0l.691.691c.293.293.293.768 0 1.061s-.768.293-1.061 0l-.691-.691c-.471-.47-1.236-.47-1.707 0l-4.842 4.842c-.146.146-.338.22-.53.22z" fill="#455a64"/><path d="m13.195 2.623c-.501 0-1.001.191-1.384.573l-5.372 5.372c.146.146.338.22.53.22s.384-.073.53-.22l4.842-4.842c.235-.235.544-.352.854-.352.309 0 .618.117.854.352l.691.691c.146.146.338.22.53.22s.384-.073.53-.22l-1.222-1.222c-.381-.381-.882-.572-1.383-.572z" fill="#3c4e57"/><path d="m20.8 7.4c-.192 0-.384-.073-.53-.22l-3.45-3.45c-.141-.14-.22-.331-.22-.53s.079-.39.22-.53l1.73-1.73c1.198-1.21 3.312-1.212 4.514.002.6.59.936 1.394.936 2.258 0 .845-.334 1.644-.939 2.25l-1.73 1.73c-.147.147-.339.22-.531.22z" fill="#455a64"/><path d="m.75 24c-.196 0-.388-.077-.53-.22-.197-.197-.269-.488-.186-.754l2.21-7.05c.079-.251.282-.442.537-.504.256-.061.523.013.709.198l4.84 4.84c.186.186.261.455.198.709-.063.255-.254.458-.504.537l-7.05 2.21z" fill="#f5f5f5"/><path d="m2.43 15.67 13.688-13.698c.141-.142.332-.221.531-.222h.001c.199 0 .39.079.53.22l4.85 4.85c.141.141.22.332.22.53 0 .199-.079.39-.22.531l-13.7 13.69z" fill="#90a4ae"/><path d="m23.061.939-3.456 3.456 2.255 2.255 1.2-1.2c.606-.606.94-1.405.94-2.25 0-.864-.336-1.668-.937-2.258 0-.001-.001-.002-.002-.003z" fill="#3c4e57"/><path d="m5.38 18.62-5.16 5.16c.142.143.334.22.53.22l.225-.034 7.05-2.21c.117-.037.221-.101.306-.185z" fill="#d5d5d5"/><path d="m19.605 4.395-14.225 14.225 2.95 2.951 13.7-13.69c.141-.141.22-.332.22-.531s-.079-.39-.22-.53l-.17-.17z" fill="#7d8f97"/></svg>